Coordinates
version=1
nRows=14
nColumns=40
inDegrees=yes

Units are S.I. units (second, meters, Newtons, ...)
Angles are in degrees.

endheader
time	pelvis_tilt	pelvis_list	pelvis_rotation	pelvis_tx	pelvis_ty	pelvis_tz	hip_flexion_r	hip_adduction_r	hip_rotation_r	knee_angle_r	knee_angle_r_beta	ankle_angle_r	subtalar_angle_r	mtp_angle_r	hip_flexion_l	hip_adduction_l	hip_rotation_l	knee_angle_l	knee_angle_l_beta	ankle_angle_l	subtalar_angle_l	mtp_angle_l	lumbar_extension	lumbar_bending	lumbar_rotation	arm_flex_r	arm_add_r	arm_rot_r	elbow_flex_r	pro_sup_r	wrist_flex_r	wrist_dev_r	arm_flex_l	arm_add_l	arm_rot_l	elbow_flex_l	pro_sup_l	wrist_flex_l	wrist_dev_l
      1.94000000	     -0.64154164	      2.66755825	      0.70200442	      0.56096395	      0.94997123	     -1.51050100	     25.92729045	    -11.86029963	    -21.83299687	    -24.75962936	     -0.43213705	      3.96847046	     -4.07524538	     12.52759893	     -4.84117387	     -5.59927262	     12.99766590	    -11.56657022	     -0.20187473	      7.83727755	      1.88014950	     -8.94251370	     -4.98998059	     -4.02119041	     -4.24794252	      0.02059540	     -9.34377905	    -21.67223378	     20.59507129	     89.95437384	      0.00000000	      0.00000000	      7.14771679	     15.78699297	      0.04379105	     20.74176355	     89.95437384	      0.00000000	      0.00000000
      1.95000000	     -0.89704413	      2.81308111	      0.88142167	      0.56801548	      0.94863551	     -1.51054373	     26.41271980	    -11.73556032	    -21.86916998	    -22.92119535	     -0.40005033	      3.94165737	     -2.95607891	     12.29103331	     -5.03477151	     -5.71196940	     12.89672358	    -11.61850387	     -0.20278115	      7.94065142	      1.56912365	     -9.13838620	     -4.78113150	     -4.10800572	     -4.39094640	     -0.21932940	     -9.34598166	    -21.72280000	     20.40672821	     89.95437384	      0.00000000	      0.00000000	      7.20362908	     15.75694624	     -0.02724880	     20.99628152	     89.95437384	      0.00000000	      0.00000000
      1.96000000	     -0.99302744	      2.75364857	      1.10814055	      0.57546368	      0.94755504	     -1.51054426	     26.61785766	    -11.45276281	    -22.27029222	    -21.11276942	     -0.36848734	      3.97724688	     -1.44454968	     11.98096640	     -5.42233002	     -5.57116622	     12.90044171	    -11.67481150	     -0.20376390	      8.10862435	      1.31816123	     -9.43606248	     -4.71039078	     -3.96293316	     -4.58957104	     -0.34395600	     -9.38397119	    -21.98071173	     19.98642073	     89.95437384	      0.00000000	      0.00000000	      7.22020737	     15.66981012	     -0.03226509	     21.26083882	     89.95437384	      0.00000000	      0.00000000
      1.97000000	     -0.57504473	      2.40889438	      1.48176624	      0.58357927	      0.94729655	     -1.51057172	     25.98628806	    -11.08609846	    -23.67523105	    -19.23269155	     -0.33567379	      4.12248761	      1.35517864	     10.51304561	     -6.40606762	     -4.96675974	     13.44925232	    -11.73029639	     -0.20473229	      8.04679557	      0.05853319	    -10.60505494	     -5.19805710	     -3.45951476	     -4.90778773	     -0.38009928	     -9.42308551	    -22.50448382	     19.53272377	     89.95437384	      0.00000000	      0.00000000	      7.28115677	     15.49489575	      0.07526031	     21.46993562	     89.95437384	      0.00000000	      0.00000000
      1.98000000	     -0.89627314	      2.54531751	      1.63617258	      0.59096516	      0.94573230	     -1.51040173	     26.41736759	    -10.92619276	    -23.48141478	    -17.50205400	     -0.30546847	      4.14100556	      2.35026417	     10.26116862	     -6.55216149	     -5.05674450	     13.37895109	    -11.76709820	     -0.20537461	      8.15388637	     -0.12836359	    -10.80827821	     -4.87385377	     -3.54099189	     -5.03860017	     -0.59974737	     -9.41341842	    -22.75506131	     19.27596099	     89.95437384	      0.00000000	      0.00000000	      7.22277152	     15.40495813	      0.07938830	     21.75171197	     89.95437384	      0.00000000	      0.00000000
      1.99000000	     -1.07220943	      2.75225527	      1.74515768	      0.59857507	      0.94430770	     -1.51018188	     26.98405971	    -10.99868014	    -23.87341916	    -16.61269474	     -0.28994622	      4.34677877	      2.52109626	     10.17433459	     -6.91810545	     -5.21202956	     13.58450710	    -11.72660956	     -0.20466795	      8.37645845	     -0.15353558	    -10.87161451	     -4.69577137	     -3.68997077	     -5.04757768	     -0.85170125	     -9.45845429	    -22.82718463	     19.01714596	     89.95437384	      0.00000000	      0.00000000	      7.27562419	     15.26916661	      0.04871013	     21.86263151	     89.95437384	      0.00000000	      0.00000000
      2.00000000	     -0.68567880	      2.27440108	      2.19938851	      0.60701778	      0.94401819	     -1.50981920	     26.05336661	    -10.35650414	    -24.90169164	    -14.49928064	     -0.25306019	      3.90580791	      5.04083347	      8.90650508	     -7.84938135	     -4.42082570	     13.70503099	    -11.86305017	     -0.20704928	      8.19148336	     -1.22716282	    -11.96558548	     -5.12906377	     -3.04506020	     -5.33479912	     -0.87187851	     -9.33463618	    -24.56068944	     18.56425240	     89.95437384	      0.00000000	      0.00000000	      7.24245431	     15.10290583	     -0.10274254	     22.17026185	     89.95437384	      0.00000000	      0.00000000
      2.01000000	     -0.92322844	      2.42893259	      2.39209822	      0.61496868	      0.94251049	     -1.50947686	     26.41375127	    -10.35716012	    -24.93512813	    -13.52767283	     -0.23610243	      3.78233730	      5.58213977	      8.64579841	     -8.13964269	     -4.48326453	     13.74277148	    -11.86332317	     -0.20705405	      8.24101205	     -1.53300656	    -12.14520755	     -4.84740981	     -3.14869376	     -5.46962771	     -1.06118963	     -9.38557865	    -24.67068470	     18.15142386	     89.95437384	      0.00000000	      0.00000000	      7.11240310	     14.98455695	     -0.16071299	     22.40056141	     89.95437384	      0.00000000	      0.00000000
      2.02000000	     -0.93579641	      2.43094821	      2.69291814	      0.62333246	      0.94134985	     -1.50901556	     26.41292118	    -10.27492019	    -25.37813048	    -12.72287360	     -0.22205603	      3.45205634	      6.09235898	      8.20209833	     -8.67976762	     -4.28853404	     13.80363440	    -11.92057200	     -0.20805323	      8.25230644	     -2.10418666	    -12.48295958	     -4.78201187	     -3.08307466	     -5.73491228	     -1.19895268	     -9.33963522	    -25.38215136	     17.78293867	     89.95437384	      0.00000000	      0.00000000	      6.89668504	     14.86852914	     -0.16939787	     22.70789354	     89.95437384	      0.00000000	      0.00000000
      2.03000000	     -1.04152958	      2.58555557	      2.86274107	      0.63177325	      0.93995463	     -1.50844181	     26.74519744	    -10.37642590	    -25.57805831	    -12.62243617	     -0.22030307	      3.41522574	      5.97001150	      8.04558279	     -9.11316637	     -4.29712900	     13.89715077	    -12.02579762	     -0.20988976	      8.32693181	     -2.21041853	    -12.48125254	     -4.61825446	     -3.18467319	     -5.78806389	     -1.51740743	     -9.38785570	    -25.48996481	     17.58624325	     89.95437384	      0.00000000	      0.00000000	      6.79737975	     14.71737126	     -0.18845564	     22.82878660	     89.95437384	      0.00000000	      0.00000000
      2.04000000	     -0.67559746	      2.36874587	      3.23515312	      0.64096237	      0.93935790	     -1.50760212	     26.29342475	    -10.17638653	    -26.30272167	    -12.56717807	     -0.21933864	      3.01372210	      6.29406652	      6.56680540	    -10.12352000	     -3.70692726	     14.28393272	    -11.98940339	     -0.20925456	      7.90843347	     -3.61174489	    -13.38305630	     -4.95429461	     -2.86990430	     -5.91704202	     -1.62427960	     -9.24285423	    -27.43287650	     17.10008852	     89.95437384	      0.00000000	      0.00000000	      6.68724281	     14.57215875	     -0.47652076	     23.05628885	     89.95437384	      0.00000000	      0.00000000
      2.05000000	     -0.81454847	      2.49502211	      3.48345427	      0.64970706	      0.93786732	     -1.50677141	     26.55667053	    -10.29034079	    -26.00975452	    -12.91633226	     -0.22543253	      2.85720566	      6.03835356	      6.44111896	    -10.41475015	     -3.61195145	     14.21992300	    -12.33945072	     -0.21536404	      7.86415396	     -3.57019000	    -13.21514885	     -4.71729555	     -2.97701772	     -6.05059055	     -2.08103378	     -9.25855625	    -27.38430575	     17.14938398	     89.95437384	      0.00000000	      0.00000000	      6.45716607	     14.43930835	     -0.48254363	     23.25628444	     89.95437384	      0.00000000	      0.00000000
      2.06000000	     -0.75287901	      2.55220729	      3.93596929	      0.65899177	      0.93675611	     -1.50624599	     26.60239799	    -10.53601958	    -26.45023029	    -13.78352837	     -0.24056795	      2.66063100	      5.04793354	      6.14866164	    -11.19951557	     -3.42373384	     14.02445062	    -12.14041910	     -0.21189029	      7.91907970	     -4.33147694	    -13.35401232	     -4.67481548	     -2.97742589	     -6.39650463	     -2.20260356	     -9.32803986	    -27.66318830	     16.50760281	     89.95437384	      0.00000000	      0.00000000	      6.18979741	     14.30840458	     -0.52697922	     23.39718333	     89.95437384	      0.00000000	      0.00000000
      2.07000000	     -0.46255242	      2.43830639	      4.31804667	      0.66871137	      0.93602481	     -1.50513269	     26.11688193	    -10.35770581	    -26.34458277	    -14.23088358	     -0.24837577	      2.35427330	      3.73274669	      5.32058938	    -12.09642633	     -2.87281814	     14.39921816	    -12.20358342	     -0.21299271	      7.35203917	     -5.71717565	    -13.91220110	     -4.86191325	     -2.80577989	     -6.58886787	     -2.32455283	     -9.23148681	    -29.22550511	     16.02892910	     89.95437384	      0.00000000	      0.00000000	      5.91628463	     14.17651009	     -0.73788701	     23.56330174	     89.95437384	      0.00000000	      0.00000000
